<svg width="22" height="22" viewBox="0 0 22 22" fill="none" xmlns="http://www.w3.org/2000/svg">
<path fill-rule="evenodd" clip-rule="evenodd" d="M21 19H19.56C19.4167 19.0083 19.2751 18.9658 19.16 18.88C19.0595 18.7967 18.9806 18.6904 18.93 18.57L18 16H13L12 18.54C11.9523 18.6565 11.8768 18.7595 11.78 18.84C11.6686 18.9346 11.5261 18.9845 11.38 18.98H10L14.55 7.51H16.44L21 19ZM17.47 14.69L15.89 10.5C15.737 10.0943 15.6068 9.68029 15.5 9.26C15.44 9.50667 15.3767 9.73667 15.31 9.95L15.12 10.51L13.54 14.7L17.47 14.69ZM11.17 13.11C10.1468 12.7589 9.16967 12.2855 8.26 11.7C9.6616 10.1946 10.6322 8.33974 11.07 6.33H13V5H8.31C8.25732 4.80863 8.19047 4.62145 8.11 4.44C7.87 3.79 7.6 3 7.6 3L6.13 3.5C6.13 3.5 6.53 4.39 6.73 5H1V6.33H3.15C3.5882 8.34799 4.57434 10.2061 6 11.7C4.45495 12.6601 2.76728 13.369 1 13.8C1.37333 14.3467 1.66333 14.8067 1.87 15.18C3.7077 14.5639 5.46127 13.7207 7.09 12.67C8.19654 13.409 9.39287 14.0038 10.65 14.44L11.17 13.11ZM4.63 6.33H9.54C9.22095 8.03743 8.36214 9.59731 7.09 10.78C5.86427 9.56021 5.01103 8.01675 4.63 6.33Z" fill="#3366DD"/>
</svg>
