<svg width="42" height="42" viewBox="0 0 42 42" fill="none" xmlns="http://www.w3.org/2000/svg">
<path opacity="0.2" d="M1.46512 6.34838C1.46512 5.31219 1.87675 4.31843 2.60945 3.58573C3.34215 2.85303 4.3359 2.44141 5.3721 2.44141H36.6279C37.6641 2.44141 38.6579 2.85303 39.3906 3.58573C40.1233 4.31843 40.5349 5.31219 40.5349 6.34838V37.6042C40.5349 38.6404 40.1233 39.6341 39.3906 40.3668C38.6579 41.0995 37.6641 41.5112 36.6279 41.5112H5.3721C4.3359 41.5112 3.34215 41.0995 2.60945 40.3668C1.87675 39.6341 1.46512 38.6404 1.46512 37.6042V6.34838Z" fill="black"/>
<path d="M36.623 1.87012H5.3721C3.4382 1.87012 1.87047 3.43785 1.87047 5.37174V36.6227C1.87047 38.5566 3.4382 40.1243 5.3721 40.1243H36.623C38.5569 40.1243 40.1247 38.5566 40.1247 36.6227V5.37174C40.1247 3.43785 38.5569 1.87012 36.623 1.87012Z" fill="white"/>
<path d="M36.6279 2.28043C37.4474 2.28172 38.233 2.60783 38.8124 3.1873C39.3919 3.76677 39.718 4.55233 39.7193 5.37182V36.6276C39.718 37.4471 39.3919 38.2327 38.8124 38.8122C38.233 39.3916 37.4474 39.7177 36.6279 39.719H5.3721C4.5526 39.7177 3.76704 39.3916 3.18758 38.8122C2.60811 38.2327 2.28199 37.4471 2.2807 36.6276V5.37182C2.28199 4.55233 2.60811 3.76677 3.18758 3.1873C3.76704 2.60783 4.5526 2.28172 5.3721 2.28043H36.6279ZM36.6279 1.46484H5.3721C4.3359 1.46484 3.34215 1.87647 2.60945 2.60917C1.87675 3.34187 1.46512 4.33563 1.46512 5.37182V36.6276C1.46512 37.6638 1.87675 38.6576 2.60945 39.3903C3.34215 40.123 4.3359 40.5346 5.3721 40.5346H36.6279C37.6641 40.5346 38.6579 40.123 39.3906 39.3903C40.1233 38.6576 40.5349 37.6638 40.5349 36.6276V5.37182C40.5349 4.33563 40.1233 3.34187 39.3906 2.60917C38.6579 1.87647 37.6641 1.46484 36.6279 1.46484Z" fill="#EAECF0"/>
<path fill-rule="evenodd" clip-rule="evenodd" d="M34.5426 13.4838C33.9951 13.5179 33.473 13.7268 33.053 14.0796C32.5245 14.6419 32.1173 15.3068 31.8565 16.0331L25.576 30.484C25.5337 30.6175 25.4181 30.6842 25.2293 30.6842C25.1587 30.6858 25.0891 30.6679 25.0279 30.6326C24.9668 30.5973 24.9165 30.5459 24.8826 30.484L21.3614 22.9533L17.3079 30.4791C17.274 30.541 17.2237 30.5924 17.1625 30.6277C17.1014 30.663 17.0317 30.6809 16.9612 30.6794C16.8882 30.6881 16.8143 30.6734 16.7502 30.6374C16.6862 30.6014 16.6352 30.546 16.6046 30.4791L10.4365 16.0233C10.1742 15.3205 9.75885 14.6849 9.22046 14.1626C8.70266 13.7715 8.0808 13.5421 7.43302 13.5033C7.39586 13.5011 7.35974 13.4902 7.32752 13.4715C7.2953 13.4529 7.26788 13.427 7.24744 13.3959C7.19046 13.3273 7.15935 13.2409 7.15953 13.1517C7.15953 12.9173 7.22465 12.8 7.35488 12.8C7.90511 12.8 8.47976 12.8245 9.07883 12.8733C9.6779 12.9221 10.2037 12.9466 10.6563 12.9466C11.1577 12.9466 11.7486 12.9221 12.4291 12.8733C13.1095 12.8245 13.7412 12.8 14.3239 12.8C14.4542 12.8 14.5193 12.9173 14.5193 13.1517C14.5193 13.3861 14.4786 13.5033 14.3972 13.5033C13.9316 13.5171 13.4801 13.6664 13.0981 13.9331C12.942 14.0425 12.8156 14.1891 12.7303 14.3596C12.6451 14.5302 12.6036 14.7193 12.6098 14.9098C12.624 15.1726 12.6904 15.4299 12.8051 15.6668L17.9281 27.3877L20.8242 21.8007L18.1235 16.0233C17.8308 15.3009 17.4271 14.6286 16.927 14.0307C16.5279 13.6976 16.0301 13.5054 15.5107 13.4838C15.4765 13.4801 15.4437 13.4684 15.4149 13.4498C15.3861 13.4311 15.362 13.406 15.3446 13.3763C15.2925 13.3057 15.2651 13.2199 15.2665 13.1321C15.2665 12.8977 15.3235 12.7805 15.4374 12.7805C15.943 12.7775 16.4484 12.802 16.9514 12.8538C17.4217 12.9048 17.8946 12.9293 18.3677 12.927C18.8593 12.927 19.3802 12.9026 19.9305 12.8538C20.4807 12.8049 21.0391 12.7805 21.6056 12.7805C21.7358 12.7805 21.8009 12.8977 21.8009 13.1321C21.8009 13.3666 21.7602 13.4838 21.6788 13.4838C20.5784 13.5587 20.0281 13.8842 20.0281 14.4605C20.0782 14.8713 20.2093 15.268 20.4139 15.6277L22.2014 19.3296L23.9742 15.9452C24.1891 15.577 24.3161 15.1642 24.3453 14.7389C24.3453 13.9673 23.7951 13.5554 22.6946 13.5033C22.597 13.5033 22.5481 13.3861 22.5481 13.1517C22.5483 13.0664 22.5738 12.9831 22.6214 12.9124C22.6702 12.8375 22.7191 12.8 22.7679 12.8C23.1619 12.8 23.6502 12.8245 24.233 12.8733C24.8158 12.9221 25.2667 12.9466 25.5858 12.9466C25.8398 12.9466 26.2126 12.9254 26.7042 12.8831C27.3293 12.8245 27.8502 12.7952 28.267 12.7952C28.3646 12.7952 28.4135 12.8961 28.4135 13.098C28.4135 13.3649 28.3239 13.4984 28.1449 13.4984C27.5907 13.5354 27.0571 13.7228 26.6016 14.0405C25.9965 14.6142 25.5002 15.2925 25.1365 16.0428L22.7679 20.5114L25.9716 27.1826L30.6991 15.9501C30.8515 15.5913 30.9344 15.2068 30.9433 14.817C30.9433 13.9933 30.393 13.557 29.2926 13.5082C29.1949 13.5082 29.146 13.391 29.146 13.1566C29.146 12.9221 29.2193 12.8049 29.3658 12.8049C29.7695 12.8049 30.2465 12.8294 30.7967 12.8782C31.347 12.927 31.7735 12.9514 32.0763 12.9514C32.4956 12.9487 32.9146 12.9243 33.3314 12.8782C33.7771 12.8228 34.2254 12.7902 34.6744 12.7805C34.7884 12.7805 34.8453 12.8814 34.8453 13.0833C34.8457 13.1837 34.8131 13.2815 34.7526 13.3617C34.7302 13.3977 34.6994 13.4276 34.6628 13.4489C34.6262 13.4702 34.5849 13.4822 34.5426 13.4838Z" fill="#000222"/>
</svg>
