<svg width="176" height="32" viewBox="0 0 176 32" fill="none" xmlns="http://www.w3.org/2000/svg">
<path d="M19.7281 8.83744L19.0375 7.44557C17.87 5.12462 17.8945 5.00191 16.713 4.85115C16.3834 4.80207 16.2116 4.75999 16.2116 4.59872V3.86246L16.3098 3.79234H23.199L23.3814 3.84844V4.58469C23.3814 4.74597 23.2587 4.83011 23.0167 4.83011L22.5154 4.90023C21.2532 5.00541 21.4636 5.51729 22.298 7.18964L30.2636 23.4784L30.5371 23.5485L37.6051 6.77944C37.8505 6.10278 37.8155 5.62246 37.4999 5.34199C37.1844 5.06151 36.9565 4.90374 36.1326 4.86868L35.4735 4.83362C35.3928 4.83362 35.3157 4.80557 35.2421 4.75298C35.2085 4.73054 35.1807 4.70036 35.1612 4.66498C35.1417 4.62959 35.1309 4.59004 35.1299 4.54964V3.84844L35.2351 3.77832H43.2182L43.2988 3.84844V4.54964C43.2988 4.73896 43.1936 4.83011 42.9763 4.83011C41.9315 4.8792 41.1532 5.11059 40.6518 5.51027C40.1166 5.96518 39.7103 6.55278 39.4738 7.21418C39.4738 7.21418 32.9702 22.09 30.7439 27.037C29.8955 28.6567 29.061 28.5095 28.3248 26.9879C26.7681 23.7834 22.3892 14.0719 22.3892 14.0719L19.7246 8.83744H19.7281Z" fill="black"/>
<path d="M32.4864 3.78162C32.4864 3.78162 27.9987 3.7676 25.9933 3.78162L25.8951 3.85174V4.55294C25.8951 4.63358 25.9302 4.70019 26.0003 4.75278C26.0775 4.80887 26.1546 4.83692 26.2352 4.83692L26.5578 4.87198C27.3747 4.90704 27.7498 5.1174 27.862 5.25764C28.0583 5.49254 28.153 5.74848 27.6797 6.77923L19.2934 23.5027L19.076 23.4502C19.076 23.4502 13.0703 10.7831 11.3278 6.55134C11.1891 6.24533 11.1026 5.91826 11.0719 5.5837C11.0719 5.14895 11.4575 4.91756 12.2359 4.8825L13.1369 4.84744C13.3823 4.84744 13.5015 4.75278 13.5015 4.55995V3.86927L13.4209 3.79915C13.4209 3.79915 6.22661 3.78864 4.74008 3.79915L4.66295 3.86927V4.59852C4.66295 4.73174 4.83124 4.80887 5.1643 4.85095C6.08287 4.90003 6.68239 5.04377 6.96988 5.28569C7.25737 5.53111 7.5659 6.15166 7.96558 7.11931C10.1463 12.3643 14.7847 21.7217 17.0461 27.0543C17.6947 28.5093 18.5186 28.7372 19.5073 27.0087C21.2252 23.8183 25.8881 14.0822 25.8881 14.0822L29.5589 7.21047C29.9796 6.49174 30.4003 5.84314 30.6037 5.54162C30.9893 4.99119 31.1997 4.88601 32.2515 4.84043C32.4618 4.84043 32.567 4.74226 32.567 4.54943V3.85525L32.4899 3.78513L32.4864 3.78162ZM46.1386 25.4941C46.1386 26.3005 46.5068 26.7703 47.6743 26.879L48.4456 26.9491C48.5508 26.9491 48.6559 27.0262 48.6559 27.17V27.9413L48.6209 28.0114C48.6209 28.0114 45.8512 27.9413 44.7222 27.9413C43.7055 27.9413 40.8551 28.0114 40.8551 28.0114L40.785 27.9413V27.17C40.785 27.0298 40.8902 26.9526 41.0375 26.9526L41.7667 26.8825C42.9727 26.7703 43.3374 26.1883 43.3374 25.4941V13.3529C43.3374 12.5466 42.8991 12.3292 41.7702 12.224L41.041 12.1469C40.9007 12.1469 40.7885 12.1188 40.7885 12.0066V11.1652L40.8236 11.0951C40.8236 11.0951 43.7055 11.1652 44.8344 11.1652C46.0991 11.1513 47.3636 11.1279 48.6279 11.0951L48.6629 11.1652V11.9681C48.6629 12.0733 48.5858 12.1434 48.4421 12.1434L47.6708 12.2205C46.5488 12.3257 46.1422 12.6202 46.1422 13.3529V25.4941H46.1386ZM56.902 25.4941C56.902 26.3005 57.3788 26.6967 58.4341 26.879L58.8373 26.9491C58.9425 26.9842 59.0547 27.0262 59.0547 27.17V27.9413L59.0196 28.0114C59.0196 28.0114 56.7232 27.9413 55.6293 27.9413C54.6056 27.9413 51.6185 28.0114 51.6185 28.0114L51.5484 27.9413V27.17C51.5484 27.0298 51.6535 26.9526 51.8008 26.9526L52.53 26.8825C53.6239 26.7703 54.0972 26.1883 54.0972 25.4941V13.3529C54.0972 12.5466 53.694 12.3292 52.53 12.224L51.8008 12.1469C51.6535 12.1469 51.5449 12.1188 51.5449 12.0066V11.1652L51.5799 11.0951C51.5799 11.0951 54.5705 11.1652 55.6994 11.1652C56.7232 11.1652 59.0196 11.0951 59.0196 11.0951L59.0547 11.1652V11.9681C59.0547 12.0733 58.9845 12.1083 58.8373 12.1434L58.4341 12.2205C57.3052 12.4379 56.9055 12.6202 56.9055 13.3529V18.8573C58.1116 18.8573 58.7987 18.2403 60.4115 16.5258C61.8665 14.9201 62.9954 13.5738 62.9954 12.8796C62.9954 12.5851 62.6693 12.2591 61.9436 12.1434C61.7928 12.1083 61.7192 12.0733 61.7192 11.9681V11.1266L61.7543 11.0916C61.7543 11.0916 64.7098 11.1617 65.7686 11.1617C66.7152 11.1617 68.321 11.0916 68.321 11.0916L68.4261 11.1266V11.9681C68.4261 12.0733 68.321 12.1434 68.1386 12.1434C66.7152 12.2556 65.73 12.3292 64.4223 13.8262L61.2845 17.4374C60.6604 18.0895 60.443 18.4892 60.443 18.7837C60.443 19.0011 60.5833 19.1834 60.7691 19.4007L66.2735 26.0376C66.7117 26.5459 67.5882 26.7668 68.3175 26.9141L68.4998 26.9491C68.6049 26.9842 68.7557 27.0543 68.7557 27.1665V27.9308L68.6505 27.9658C68.6505 27.9658 66.7152 27.9308 65.695 27.9308C64.7834 27.9308 63.4722 27.9658 63.4722 27.9658L63.4371 27.9308V27.4925C63.4371 27.0192 63.4021 26.616 62.8867 26.0376L58.8408 21.003C58.2939 20.2737 57.7084 20.0914 56.9125 20.0914V25.4906L56.902 25.4941ZM76.56 25.4941C76.56 26.3005 76.9246 26.7703 78.0921 26.879L78.8634 26.9491C78.9686 26.9491 79.0738 27.0262 79.0738 27.17V27.9413L79.0387 28.0114C79.0387 28.0114 76.269 27.9413 75.1401 27.9413C74.1234 27.9413 71.273 28.0114 71.273 28.0114L71.2029 27.9413V27.17C71.2029 27.0298 71.308 26.9526 71.4483 26.9526L72.1845 26.8825C73.3871 26.7703 73.7517 26.1883 73.7517 25.4941V13.3529C73.7517 12.5466 73.3135 12.3292 72.181 12.224L71.4448 12.1469C71.3045 12.1469 71.1994 12.1188 71.1994 12.0066V11.1652L71.2344 11.0951C71.2344 11.0951 74.1093 11.1652 75.2418 11.1652C76.5064 11.1513 77.7709 11.1279 79.0352 11.0951L79.0703 11.1652V11.9681C79.0703 12.0733 79.0002 12.1434 78.8529 12.1434L78.0816 12.2205C76.9597 12.3257 76.553 12.6202 76.553 13.3529V25.4941H76.56ZM84.4414 13.4231C84.4414 12.2941 83.9646 12.2556 82.2537 12.1469C82.0363 12.1469 82.0013 12.0417 82.0013 11.9716V11.1301L82.0714 11.0951C82.6218 11.0951 84.771 11.1652 85.8298 11.1652C86.8465 11.1652 88.3085 11.0951 89.6583 11.0951C94.8331 11.0951 95.7798 13.6439 95.7798 15.5477C95.7798 17.7319 94.728 21.1572 89.5496 21.1572C88.6381 21.1572 87.9124 21.0871 87.2532 20.7926V25.6764C87.2532 26.4758 87.6915 26.6581 88.859 26.8404L89.5882 26.9456C89.739 26.9877 89.8477 27.0227 89.8477 27.17V27.9343L89.8126 28.0044C89.8126 28.0044 86.8956 27.9343 85.7667 27.9343C84.75 27.9343 82.0153 28.0044 82.0153 28.0044L81.9732 27.9343V27.17C81.9732 27.0227 82.0433 26.9877 82.1941 26.9491L82.9654 26.8439C84.0873 26.6932 84.4555 26.3671 84.4555 25.6729V13.4196L84.4414 13.4231ZM87.2462 19.7689C87.9755 20.0634 88.887 20.0984 89.6163 20.0984C91.811 20.0984 92.8628 18.7802 92.8628 15.9754C92.8628 12.8376 91.4429 12.1469 89.4375 12.1469C87.6845 12.1469 87.2462 12.4729 87.2462 13.4231V19.7689ZM102.059 27.9378C100.962 27.9378 98.4478 28.0079 98.4478 28.0079L98.4128 27.9378V27.1314C98.4128 27.0613 98.4478 26.9561 98.6301 26.9561L99.4716 26.879C100.6 26.7738 100.93 26.0376 100.93 25.3118V13.2793C100.93 12.4379 100.492 12.2976 99.4681 12.2275L98.6336 12.1469C98.4128 12.1188 98.4128 12.0417 98.4128 12.0066V11.1652L98.4478 11.0951C98.4478 11.0951 101.288 11.1652 102.385 11.1652H107.749C108.836 11.1652 111.43 11.0951 111.43 11.0951L111.501 11.1652C111.536 12.7324 111.795 14.1593 112.051 15.5407L111.139 15.6879C110.74 14.3381 110.053 12.4063 107.714 12.4063H104.797C104.106 12.4063 103.745 12.6623 103.745 13.2828V18.5593H106.48C107.497 18.5593 107.753 18.1211 107.9 17.3918L108.117 16.6205C108.117 16.5153 108.187 16.4382 108.335 16.4382H108.952C109.022 16.4382 109.022 16.4733 109.022 16.5434C108.952 17.3498 108.811 18.3735 108.811 19.243C108.811 20.1545 108.952 20.9258 109.022 21.7673L108.952 21.8374H108.335C108.152 21.8374 108.075 21.7673 108.075 21.6551L107.893 20.8487C107.753 20.123 107.42 19.7198 106.469 19.7198H103.735V25.3013C103.735 25.992 104.135 26.6862 104.794 26.6862H108.258C110.116 26.6862 111.139 25.5222 111.578 23.6254L112.489 23.7306L111.753 27.9273L111.683 27.9974C111.683 27.9974 109.53 27.9273 108.436 27.9273H102.055L102.059 27.9378ZM115.767 26.9526L116.609 26.8825C117.703 26.7703 118.067 26.4407 118.067 25.3118V13.2793C118.067 12.3327 117.811 12.3327 116.609 12.2275L115.809 12.1469C115.662 12.1469 115.55 12.0768 115.55 11.9716V11.1652L115.585 11.0951C115.585 11.0951 118.796 11.1652 119.452 11.1652C120.146 11.1652 123.323 11.0951 124.269 11.0951C130.359 11.0951 133.35 14.8815 133.35 19.7338C133.35 26.1147 128.827 28.0079 124.781 28.0079C121.864 28.0079 120.592 27.9378 119.459 27.9378C118.365 27.9378 115.592 28.0079 115.592 28.0079L115.557 27.9378V27.1735C115.55 27.0683 115.627 26.9561 115.767 26.9561V26.9526ZM123.901 26.9526C127.912 26.9526 130.177 25.4591 130.177 20.3544C130.177 16.5609 129.335 12.1504 123.211 12.1504C121.787 12.1504 120.876 12.3678 120.876 13.2793V25.3118C120.876 26.3286 121.128 26.9526 123.901 26.9526ZM141.957 25.4941C141.957 26.3005 142.318 26.7703 143.486 26.879L144.257 26.9491C144.362 26.9491 144.467 27.0262 144.467 27.17V27.9413L144.432 28.0114C144.432 28.0114 141.662 27.9413 140.534 27.9413C139.517 27.9413 136.67 28.0114 136.67 28.0114L136.6 27.9413V27.17C136.6 27.0298 136.705 26.9526 136.845 26.9526L137.582 26.8825C138.784 26.7703 139.149 26.1883 139.149 25.4941V13.3529C139.149 12.5466 138.707 12.3292 137.578 12.224L136.842 12.1469C136.702 12.1469 136.596 12.1188 136.596 12.0066V11.1652L136.631 11.0951C136.631 11.0951 139.506 11.1652 140.635 11.1652C141.9 11.1513 143.164 11.1279 144.429 11.0951L144.464 11.1652V11.9681C144.464 12.0733 144.394 12.1434 144.246 12.1434L143.475 12.2205C142.353 12.3257 141.95 12.6202 141.95 13.3529V25.4941H141.957ZM153.187 26.879L154.245 26.9491C154.393 26.9491 154.536 27.0648 154.536 27.2436V27.9378L154.466 28.0079C154.466 28.0079 150.491 27.9378 149.614 27.9378C148.667 27.9378 146.332 28.0079 146.332 28.0079L146.262 27.9378V27.2436C146.262 27.0683 146.367 26.9526 146.55 26.9526C148.156 26.8474 149.064 26.5529 150.091 24.218L158.179 5.25764C158.579 4.31103 158.873 3.9429 159.42 3.9429C159.932 3.9429 160.121 4.31103 160.402 5.04027L167.88 24.8035C168.392 26.2269 169.121 26.7738 170.58 26.9176L170.983 26.9526C171.165 26.9526 171.348 27.0578 171.348 27.2471V27.9378L171.242 28.0079C171.242 28.0079 168.431 27.9378 167.007 27.9378C165.731 27.9378 162.158 28.0079 162.158 28.0079L162.123 27.9378V27.2471C162.123 27.0613 162.193 26.9526 162.383 26.9526L163.4 26.8825C164.788 26.7773 165.303 26.3321 164.935 25.3118L162.712 19.1483H155.129C154.252 19.1483 154.035 19.2956 153.853 19.7689L151.739 25.0559C151.374 25.9674 151.851 26.7738 153.197 26.879H153.187ZM162.116 17.6127L158.586 7.88011H158.516L154.869 17.1429C154.719 17.5075 154.975 17.6162 155.774 17.6162H162.12L162.116 17.6127Z" fill="black"/>
</svg>
